<?xml version="1.0" encoding="UTF-8" standalone="no"?>
<svg width="24" height="24" viewBox="0 0 24 24" fill="none" version="1.1" id="svg6" sodipodi:docname="eye.svg" inkscape:version="1.2.1 (9c6d41e410, 2022-07-14)" xmlns:inkscape="http://www.inkscape.org/namespaces/inkscape" xmlns:sodipodi="http://sodipodi.sourceforge.net/DTD/sodipodi-0.dtd" xmlns="http://www.w3.org/2000/svg" xmlns:svg="http://www.w3.org/2000/svg">
  <defs id="defs10"></defs>
  <sodipodi:namedview id="namedview8" pagecolor="#ffffff" bordercolor="#000000" borderopacity="0.25" inkscape:showpageshadow="2" inkscape:pageopacity="0.0" inkscape:pagecheckerboard="0" inkscape:deskcolor="#d1d1d1" showgrid="false" inkscape:zoom="9.8333333" inkscape:cx="3.4576271" inkscape:cy="12.050847" inkscape:window-width="1680" inkscape:window-height="1027" inkscape:window-x="-8" inkscape:window-y="-8" inkscape:window-maximized="1" inkscape:current-layer="svg6"></sodipodi:namedview>
  <path fill-rule="evenodd" clip-rule="evenodd" d="M16 12C16 14.2091 14.2091 16 12 16C9.79086 16 8 14.2091 8 12C8 9.79086 9.79086 8 12 8C14.2091 8 16 9.79086 16 12ZM14 12C14 13.1046 13.1046 14 12 14C10.8954 14 10 13.1046 10 12C10 10.8954 10.8954 10 12 10C13.1046 10 14 10.8954 14 12Z" fill="currentColor" id="path2" style="fill: #feecd2; fill-opacity: 1"></path>
  <path fill-rule="evenodd" clip-rule="evenodd" d="M12 3C17.5915 3 22.2898 6.82432 23.6219 12C22.2898 17.1757 17.5915 21 12 21C6.40848 21 1.71018 17.1757 0.378052 12C1.71018 6.82432 6.40848 3 12 3ZM12 19C7.52443 19 3.73132 16.0581 2.45723 12C3.73132 7.94186 7.52443 5 12 5C16.4756 5 20.2687 7.94186 21.5428 12C20.2687 16.0581 16.4756 19 12 19Z" fill="currentColor" id="path4" style="fill: #feecd2; fill-opacity: 1"></path>
</svg>
