<?xml version="1.0" encoding="UTF-8" standalone="no"?>
<svg width="15.999999" height="16.875999" viewBox="0 0 15.999999 16.875999" fill="none" version="1.1" id="svg6" sodipodi:docname="logo.svg" inkscape:version="1.2.1 (9c6d41e410, 2022-07-14)" inkscape:export-filename="logo.svg" inkscape:export-xdpi="96" inkscape:export-ydpi="96" xmlns:inkscape="http://www.inkscape.org/namespaces/inkscape" xmlns:sodipodi="http://sodipodi.sourceforge.net/DTD/sodipodi-0.dtd" xmlns="http://www.w3.org/2000/svg" xmlns:svg="http://www.w3.org/2000/svg">
  <defs id="defs10">
    <clipPath clipPathUnits="userSpaceOnUse" id="clipPath147">
      <g id="g151">
        <rect style="fill: #fb3cfb; fill-opacity: 1; stroke: none; stroke-width: 4.53544px" id="rect149" height="24" x="0" y="2.5341796e-08" width="24"></rect>
      </g>
    </clipPath>
    <clipPath clipPathUnits="userSpaceOnUse" id="clipPath159">
      <g id="g163">
        <rect style="fill: #fb3cfb; fill-opacity: 1; stroke: none; stroke-width: 4.53544px" id="rect161" height="24" x="0" y="2.5341796e-08" width="24"></rect>
      </g>
    </clipPath>
    <clipPath clipPathUnits="userSpaceOnUse" id="clipPath165">
      <g id="g169">
        <rect style="fill: #fb3cfb; fill-opacity: 1; stroke: none; stroke-width: 4.53544px" id="rect167" height="24" x="0" y="2.5341796e-08" width="24"></rect>
      </g>
    </clipPath>
  </defs>
  <sodipodi:namedview id="namedview8" pagecolor="#ffffff" bordercolor="#000000" borderopacity="0.25" inkscape:showpageshadow="2" inkscape:pageopacity="0.0" inkscape:pagecheckerboard="0" inkscape:deskcolor="#d1d1d1" showgrid="false" inkscape:zoom="19.666667" inkscape:cx="-12.254237" inkscape:cy="12.025424" inkscape:window-width="1680" inkscape:window-height="1027" inkscape:window-x="-8" inkscape:window-y="-8" inkscape:window-maximized="1" inkscape:current-layer="svg6"></sodipodi:namedview>
  <path id="rect238" clip-path="none" style="fill: #18223c; fill-opacity: 1; stroke-width: 3.86582px" inkscape:label="rect238" d="m 5.134766,9.073405 v 8.54195 h 13.525391 v -8.54195 z" transform="matrix(1,0,0,1.0952381,-4.0000004,-5.2617576)"></path>
  <path id="path288" style="fill: #683a67; fill-opacity: 1; stroke: none; stroke-width: 2.5485px" d="m 11.261984,6.5938825 c -0.427087,0.0092 -0.852397,0.090313 -1.2734376,0.2597653 C 8.8432624,7.5313089 7.7000094,8.4737339 6.4338584,8.4024766 5.7508219,8.4375571 5.1576327,7.8877519 4.5569054,7.4845072 3.6706116,7.03221 2.7075812,7.0433157 1.7971398,7.3087258 V 14.132945 H 14.863547 V 7.8516945 C 13.731178,7.1328689 12.493591,6.5674304 11.261984,6.5938825 Z"></path>
  <path id="path288-2" style="fill: #f6884d; fill-opacity: .964706; stroke: none; stroke-width: 2.75888px" d="M 5.7500662,7.7966766 C 4.7141418,7.7994147 3.6851534,8.3568712 2.6953787,8.8415984 2.3370648,9.21907 1.5429236,9.0927814 1.482488,9.8689417 V 13.878708 H 14.711005 V 8.9275363 C 14.625895,8.8418777 14.544787,8.7818707 14.480536,8.7693324 13.211264,8.0421512 11.844129,8.4722951 10.566473,8.9138644 9.166358,9.5854951 7.82605,8.2851452 6.466863,7.8904268 6.227334,7.8243511 5.9891256,7.7960502 5.7500662,7.7966744 Z"></path>
  <path id="path288-2-4" style="fill: #fbae3c; fill-opacity: 1; stroke: none; stroke-width: 2.73488px" d="M 4.5179753,9.401615 C 3.5011102,9.42605 2.4978119,9.83037 1.5453191,10.387944 l 0.037109,3.083984 H 14.965242 V 9.602787 c -0.637283,0.07224 -1.263501,0.361178 -1.771485,1.015626 -0.939503,1.050436 -2.136647,1.471945 -3.2617187,1.21875 -1.784161,-0.534522 -3.37951,-2.258395 -5.210938,-2.435548 -0.067897,-0.00186 -0.135334,-0.00164 -0.203125,0 z"></path>
  <path fill-rule="evenodd" clip-rule="evenodd" d="m 8.0001696,6.2399319 c 0.4710333,-0.4710333 0.9420667,-0.9420667 1.4131,-1.4131 0.7080004,0.70801 1.4160004,1.41602 2.1240004,2.12403 0.9432,-0.94318 1.886399,-1.88636 2.829599,-2.82954 0.4705,0.4705033 0.941,0.9410067 1.4115,1.41151 -0.8215,0.82149 -1.642999,1.64298 -2.464499,2.46447 1.663297,0.014361 3.329458,-0.029362 4.990886,0.023044 1.065129,0.1350516 1.82233,1.2092893 1.695413,2.2560171 -0.0068,2.308373 0.01364,4.617606 -0.01032,6.925436 -0.08226,1.107818 -1.185924,1.930596 -2.268736,1.795523 -3.975034,-0.0069 -7.9509364,0.01375 -11.9254268,-0.01033 -1.107808,-0.08227 -1.9305737,-1.185933 -1.7955115,-2.268734 0.00679,-2.308377 -0.013643,-4.617614 0.010326,-6.9254481 0.082248,-1.1078258 1.1859275,-1.9305841 2.2687352,-1.7955115 1.159433,0 2.3188659,0 3.4782989,0 -0.5857867,-0.58579 -1.1715733,-1.17158 -1.75736,-1.75737 z m 9.9999994,3.75737 c -4,0 -8,0 -11.9999994,0 0,2.3333401 0,4.6666801 0,7.0000201 3.9999994,0 7.9999994,0 11.9999994,0 0,-2.33334 0,-4.66668 0,-7.0000201 z" fill="currentColor" id="path2" clip-path="none" transform="translate(-4.0001698,-4.1213219)"></path>
</svg>
