<?xml version="1.0" encoding="UTF-8" standalone="no"?>
<svg
   width="24"
   height="24"
   viewBox="0 0 24 24"
   fill="none"
   version="1.1"
   id="svg4"
   sodipodi:docname="fav-false.svg"
   inkscape:version="1.2.1 (9c6d41e410, 2022-07-14)"
   xmlns:inkscape="http://www.inkscape.org/namespaces/inkscape"
   xmlns:sodipodi="http://sodipodi.sourceforge.net/DTD/sodipodi-0.dtd"
   xmlns="http://www.w3.org/2000/svg"
   xmlns:svg="http://www.w3.org/2000/svg">
  <defs
     id="defs8" />
  <sodipodi:namedview
     id="namedview6"
     pagecolor="#ffffff"
     bordercolor="#000000"
     borderopacity="0.25"
     inkscape:showpageshadow="2"
     inkscape:pageopacity="0"
     inkscape:pagecheckerboard="0"
     inkscape:deskcolor="#d1d1d1"
     showgrid="false"
     inkscape:zoom="19.666667"
     inkscape:cx="12.101695"
     inkscape:cy="13.550848"
     inkscape:window-width="1680"
     inkscape:window-height="1027"
     inkscape:window-x="-8"
     inkscape:window-y="-8"
     inkscape:window-maximized="1"
     inkscape:current-layer="svg4" />
  <path
     fill-rule="evenodd"
     clip-rule="evenodd"
     d="m 12.0122,5.57169 -1.087,-1.087 c -2.14786,-2.14788 -5.63027,-2.14788 -7.77815,0 -2.147888,2.14789 -2.147888,5.63031 0,7.77821 l 8.83885,8.8388 0.0018,-0.0018 0.0263,0.0263 8.8388,-8.8388 c 2.1479,-2.1479 2.1479,-5.63029 0,-7.77817 -2.1478,-2.14789 -5.6302,-2.14789 -7.7781,0 z m -0.0245,12.69981 4.9362,-4.9363 1.4508,-1.401 0.0015,0.0014 1.0624,-1.0624 c 1.3669,-1.36685 1.3669,-3.58292 0,-4.94976 -1.3668,-1.36683 -3.5829,-1.36683 -4.9497,0 L 12.0133,8.39904 12.006,8.3918 12.005,8.39287 9.51101,5.89891 c -1.36684,-1.36684 -3.58292,-1.36684 -4.94975,0 -1.36684,1.36683 -1.36684,3.58291 0,4.94979 l 2.53942,2.5394 0.0018,-0.0018 z"
     fill="currentColor"
     id="path2"
     style="display:inline;fill:#c0526a;fill-opacity:1;stroke:none;stroke-opacity:1"
     class="UnoptimicedTransforms" />
  <path
     fill-rule="evenodd"
     clip-rule="evenodd"
     d="m 11.9878,18.2715 4.9362,-4.9363 1.45073,-1.401 0.0015,0.0014 1.06247,-1.0624 c 1.3669,-1.36685 1.3669,-3.58292 0,-4.94976 -1.3668,-1.36683 -3.5829,-1.36683 -4.9497,0 L 12.0134,8.39904 12.0061,8.3918 12.0051,8.39287 9.51111,5.89891 c -1.36684,-1.36684 -3.58292,-1.36684 -4.94975,0 -1.36684,1.36683 -1.36684,3.58291 0,4.94979 l 2.53935,2.5394 0.0018,-0.0018 z"
     fill="currentColor"
     id="path19768"
     style="display:inline;fill:#feecd2;fill-opacity:1;stroke:#feecd2;stroke-width:1.5;stroke-linejoin:round;stroke-dasharray:none;stroke-opacity:1"
     class="UnoptimicedTransforms"
     sodipodi:nodetypes="cccccccccccccccc" />
</svg>
